<mxfile host="app.diagrams.net" modified="2021-12-11T09:52:25.625Z" agent="5.0 (Windows NT 10.0; Win64; x64) AppleWebKit/537.36 (KHTML, like Gecko) Chrome/96.0.4664.55 Safari/537.36 Edg/96.0.1054.43" etag="IHVTLvJUa0BqR9oNlwmx" version="15.9.4" type="github">
  <diagram id="0tUhiMiLZWelCjjBS0ko" name="第 1 页">
    <mxGraphModel dx="1422" dy="754" grid="1" gridSize="10" guides="1" tooltips="1" connect="1" arrows="1" fold="1" page="1" pageScale="1" pageWidth="827" pageHeight="1169" math="0" shadow="0">
      <root>
        <mxCell id="0" />
        <mxCell id="1" parent="0" />
        <mxCell id="uX3Hsv1PVu4bfO5Dq79v-1" value="OA" style="shape=umlLifeline;perimeter=lifelinePerimeter;whiteSpace=wrap;html=1;container=1;collapsible=0;recursiveResize=0;outlineConnect=0;" parent="1" vertex="1">
          <mxGeometry x="80" y="40" width="100" height="680" as="geometry" />
        </mxCell>
        <mxCell id="uX3Hsv1PVu4bfO5Dq79v-9" value="" style="html=1;points=[];perimeter=orthogonalPerimeter;" parent="uX3Hsv1PVu4bfO5Dq79v-1" vertex="1">
          <mxGeometry x="45" y="180" width="10" height="80" as="geometry" />
        </mxCell>
        <mxCell id="uX3Hsv1PVu4bfO5Dq79v-2" value="小程序" style="shape=umlLifeline;perimeter=lifelinePerimeter;whiteSpace=wrap;html=1;container=1;collapsible=0;recursiveResize=0;outlineConnect=0;" parent="1" vertex="1">
          <mxGeometry x="280" y="40" width="100" height="680" as="geometry" />
        </mxCell>
        <mxCell id="uX3Hsv1PVu4bfO5Dq79v-15" value="" style="html=1;points=[];perimeter=orthogonalPerimeter;" parent="uX3Hsv1PVu4bfO5Dq79v-2" vertex="1">
          <mxGeometry x="45" y="260" width="10" height="80" as="geometry" />
        </mxCell>
        <mxCell id="uX3Hsv1PVu4bfO5Dq79v-3" value="支付中心" style="shape=umlLifeline;perimeter=lifelinePerimeter;whiteSpace=wrap;html=1;container=1;collapsible=0;recursiveResize=0;outlineConnect=0;" parent="1" vertex="1">
          <mxGeometry x="480" y="40" width="100" height="680" as="geometry" />
        </mxCell>
        <mxCell id="uX3Hsv1PVu4bfO5Dq79v-5" value="" style="html=1;points=[];perimeter=orthogonalPerimeter;" parent="uX3Hsv1PVu4bfO5Dq79v-3" vertex="1">
          <mxGeometry x="45" y="70" width="10" height="80" as="geometry" />
        </mxCell>
        <mxCell id="uX3Hsv1PVu4bfO5Dq79v-7" value="" style="html=1;points=[];perimeter=orthogonalPerimeter;" parent="uX3Hsv1PVu4bfO5Dq79v-3" vertex="1">
          <mxGeometry x="45" y="180" width="10" height="40" as="geometry" />
        </mxCell>
        <mxCell id="uX3Hsv1PVu4bfO5Dq79v-8" value="查询主体&lt;br&gt;或固定跳到一个小程序" style="edgeStyle=orthogonalEdgeStyle;html=1;align=left;spacingLeft=2;endArrow=block;rounded=0;entryX=1;entryY=0;exitX=1;exitY=0.563;exitDx=0;exitDy=0;exitPerimeter=0;" parent="uX3Hsv1PVu4bfO5Dq79v-3" source="uX3Hsv1PVu4bfO5Dq79v-5" target="uX3Hsv1PVu4bfO5Dq79v-7" edge="1">
          <mxGeometry relative="1" as="geometry">
            <mxPoint x="30" y="200" as="sourcePoint" />
            <Array as="points">
              <mxPoint x="55" y="140" />
              <mxPoint x="80" y="140" />
              <mxPoint x="80" y="180" />
              <mxPoint x="55" y="180" />
            </Array>
          </mxGeometry>
        </mxCell>
        <mxCell id="uX3Hsv1PVu4bfO5Dq79v-20" value="" style="html=1;points=[];perimeter=orthogonalPerimeter;" parent="uX3Hsv1PVu4bfO5Dq79v-3" vertex="1">
          <mxGeometry x="45" y="320" width="10" height="80" as="geometry" />
        </mxCell>
        <mxCell id="uX3Hsv1PVu4bfO5Dq79v-24" value="" style="html=1;points=[];perimeter=orthogonalPerimeter;" parent="uX3Hsv1PVu4bfO5Dq79v-3" vertex="1">
          <mxGeometry x="45" y="450" width="10" height="40" as="geometry" />
        </mxCell>
        <mxCell id="uX3Hsv1PVu4bfO5Dq79v-25" value="查询主体，确定主体余额" style="edgeStyle=orthogonalEdgeStyle;html=1;align=left;spacingLeft=2;endArrow=block;rounded=0;entryX=1;entryY=0;exitX=1.1;exitY=0.713;exitDx=0;exitDy=0;exitPerimeter=0;" parent="uX3Hsv1PVu4bfO5Dq79v-3" source="uX3Hsv1PVu4bfO5Dq79v-20" target="uX3Hsv1PVu4bfO5Dq79v-24" edge="1">
          <mxGeometry relative="1" as="geometry">
            <mxPoint x="45" y="430" as="sourcePoint" />
            <Array as="points">
              <mxPoint x="75" y="377" />
              <mxPoint x="75" y="450" />
            </Array>
          </mxGeometry>
        </mxCell>
        <mxCell id="uX3Hsv1PVu4bfO5Dq79v-4" value="用户" style="shape=umlLifeline;perimeter=lifelinePerimeter;whiteSpace=wrap;html=1;container=1;collapsible=0;recursiveResize=0;outlineConnect=0;" parent="1" vertex="1">
          <mxGeometry x="680" y="40" width="100" height="680" as="geometry" />
        </mxCell>
        <mxCell id="uX3Hsv1PVu4bfO5Dq79v-11" value="" style="html=1;points=[];perimeter=orthogonalPerimeter;" parent="uX3Hsv1PVu4bfO5Dq79v-4" vertex="1">
          <mxGeometry x="45" y="240" width="10" height="80" as="geometry" />
        </mxCell>
        <mxCell id="uX3Hsv1PVu4bfO5Dq79v-6" value="发起支付" style="html=1;verticalAlign=bottom;startArrow=oval;endArrow=block;startSize=8;rounded=0;" parent="1" source="uX3Hsv1PVu4bfO5Dq79v-1" target="uX3Hsv1PVu4bfO5Dq79v-5" edge="1">
          <mxGeometry relative="1" as="geometry">
            <mxPoint x="130" y="120" as="sourcePoint" />
            <Array as="points">
              <mxPoint x="330" y="120" />
            </Array>
          </mxGeometry>
        </mxCell>
        <mxCell id="uX3Hsv1PVu4bfO5Dq79v-10" value="返回二维码" style="html=1;verticalAlign=bottom;startArrow=oval;endArrow=block;startSize=8;rounded=0;" parent="1" source="uX3Hsv1PVu4bfO5Dq79v-7" target="uX3Hsv1PVu4bfO5Dq79v-9" edge="1">
          <mxGeometry relative="1" as="geometry">
            <mxPoint x="65" y="250" as="sourcePoint" />
          </mxGeometry>
        </mxCell>
        <mxCell id="uX3Hsv1PVu4bfO5Dq79v-12" value="" style="html=1;verticalAlign=bottom;startArrow=oval;endArrow=block;startSize=8;rounded=0;" parent="1" source="uX3Hsv1PVu4bfO5Dq79v-9" target="uX3Hsv1PVu4bfO5Dq79v-11" edge="1">
          <mxGeometry relative="1" as="geometry">
            <mxPoint x="265" y="300" as="sourcePoint" />
          </mxGeometry>
        </mxCell>
        <mxCell id="uX3Hsv1PVu4bfO5Dq79v-13" value="扫码" style="edgeLabel;html=1;align=center;verticalAlign=middle;resizable=0;points=[];" parent="uX3Hsv1PVu4bfO5Dq79v-12" vertex="1" connectable="0">
          <mxGeometry x="-0.0644" relative="1" as="geometry">
            <mxPoint as="offset" />
          </mxGeometry>
        </mxCell>
        <mxCell id="uX3Hsv1PVu4bfO5Dq79v-16" value="" style="edgeStyle=orthogonalEdgeStyle;rounded=0;orthogonalLoop=1;jettySize=auto;html=1;" parent="1" source="uX3Hsv1PVu4bfO5Dq79v-11" target="uX3Hsv1PVu4bfO5Dq79v-15" edge="1">
          <mxGeometry relative="1" as="geometry">
            <Array as="points">
              <mxPoint x="440" y="320" />
              <mxPoint x="440" y="320" />
            </Array>
          </mxGeometry>
        </mxCell>
        <mxCell id="uX3Hsv1PVu4bfO5Dq79v-18" value="跳转到小程序" style="edgeLabel;html=1;align=center;verticalAlign=middle;resizable=0;points=[];" parent="uX3Hsv1PVu4bfO5Dq79v-16" vertex="1" connectable="0">
          <mxGeometry x="-0.159" y="-3" relative="1" as="geometry">
            <mxPoint as="offset" />
          </mxGeometry>
        </mxCell>
        <mxCell id="uX3Hsv1PVu4bfO5Dq79v-21" value="选择支付类型，发起付款" style="html=1;verticalAlign=bottom;startArrow=oval;endArrow=block;startSize=8;rounded=0;" parent="1" source="uX3Hsv1PVu4bfO5Dq79v-15" target="uX3Hsv1PVu4bfO5Dq79v-20" edge="1">
          <mxGeometry relative="1" as="geometry">
            <mxPoint x="465" y="360" as="sourcePoint" />
          </mxGeometry>
        </mxCell>
        <mxCell id="uX3Hsv1PVu4bfO5Dq79v-26" value="OA" style="shape=umlLifeline;perimeter=lifelinePerimeter;whiteSpace=wrap;html=1;container=1;collapsible=0;recursiveResize=0;outlineConnect=0;" parent="1" vertex="1">
          <mxGeometry x="40" y="1169" width="100" height="721" as="geometry" />
        </mxCell>
        <mxCell id="uX3Hsv1PVu4bfO5Dq79v-32" value="" style="html=1;points=[];perimeter=orthogonalPerimeter;" parent="uX3Hsv1PVu4bfO5Dq79v-26" vertex="1">
          <mxGeometry x="45" y="121" width="10" height="80" as="geometry" />
        </mxCell>
        <mxCell id="uX3Hsv1PVu4bfO5Dq79v-50" value="" style="html=1;points=[];perimeter=orthogonalPerimeter;" parent="uX3Hsv1PVu4bfO5Dq79v-26" vertex="1">
          <mxGeometry x="45" y="625" width="10" height="80" as="geometry" />
        </mxCell>
        <mxCell id="uX3Hsv1PVu4bfO5Dq79v-38" value="" style="html=1;points=[];perimeter=orthogonalPerimeter;" parent="uX3Hsv1PVu4bfO5Dq79v-26" vertex="1">
          <mxGeometry x="45" y="301" width="10" height="109" as="geometry" />
        </mxCell>
        <mxCell id="uX3Hsv1PVu4bfO5Dq79v-40" value="" style="html=1;points=[];perimeter=orthogonalPerimeter;" parent="uX3Hsv1PVu4bfO5Dq79v-26" vertex="1">
          <mxGeometry x="45" y="431" width="10" height="80" as="geometry" />
        </mxCell>
        <mxCell id="uX3Hsv1PVu4bfO5Dq79v-27" value="小程序" style="shape=umlLifeline;perimeter=lifelinePerimeter;whiteSpace=wrap;html=1;container=1;collapsible=0;recursiveResize=0;outlineConnect=0;" parent="1" vertex="1">
          <mxGeometry x="240" y="1169" width="100" height="711" as="geometry" />
        </mxCell>
        <mxCell id="uX3Hsv1PVu4bfO5Dq79v-34" value="" style="html=1;points=[];perimeter=orthogonalPerimeter;" parent="uX3Hsv1PVu4bfO5Dq79v-27" vertex="1">
          <mxGeometry x="45" y="161" width="10" height="80" as="geometry" />
        </mxCell>
        <mxCell id="uX3Hsv1PVu4bfO5Dq79v-36" value="" style="html=1;points=[];perimeter=orthogonalPerimeter;" parent="uX3Hsv1PVu4bfO5Dq79v-27" vertex="1">
          <mxGeometry x="40" y="291" width="10" height="69" as="geometry" />
        </mxCell>
        <mxCell id="uX3Hsv1PVu4bfO5Dq79v-37" value="选择付款方式" style="edgeStyle=orthogonalEdgeStyle;html=1;align=left;spacingLeft=2;endArrow=block;rounded=0;entryX=1;entryY=0;" parent="uX3Hsv1PVu4bfO5Dq79v-27" source="uX3Hsv1PVu4bfO5Dq79v-34" target="uX3Hsv1PVu4bfO5Dq79v-36" edge="1">
          <mxGeometry relative="1" as="geometry">
            <mxPoint x="45" y="271" as="sourcePoint" />
            <Array as="points">
              <mxPoint x="75" y="201" />
              <mxPoint x="75" y="291" />
            </Array>
          </mxGeometry>
        </mxCell>
        <mxCell id="-LrGTN-4yrzrAGJKd58x-3" value="" style="html=1;points=[];perimeter=orthogonalPerimeter;" vertex="1" parent="uX3Hsv1PVu4bfO5Dq79v-27">
          <mxGeometry x="45" y="491" width="10" height="80" as="geometry" />
        </mxCell>
        <mxCell id="uX3Hsv1PVu4bfO5Dq79v-28" value="支付中心" style="shape=umlLifeline;perimeter=lifelinePerimeter;whiteSpace=wrap;html=1;container=1;collapsible=0;recursiveResize=0;outlineConnect=0;" parent="1" vertex="1">
          <mxGeometry x="440" y="1169" width="100" height="711" as="geometry" />
        </mxCell>
        <mxCell id="uX3Hsv1PVu4bfO5Dq79v-30" value="" style="html=1;points=[];perimeter=orthogonalPerimeter;" parent="uX3Hsv1PVu4bfO5Dq79v-28" vertex="1">
          <mxGeometry x="40" y="81" width="10" height="80" as="geometry" />
        </mxCell>
        <mxCell id="uX3Hsv1PVu4bfO5Dq79v-44" value="" style="html=1;points=[];perimeter=orthogonalPerimeter;" parent="uX3Hsv1PVu4bfO5Dq79v-28" vertex="1">
          <mxGeometry x="45" y="521" width="10" height="80" as="geometry" />
        </mxCell>
        <mxCell id="-LrGTN-4yrzrAGJKd58x-1" value="" style="html=1;points=[];perimeter=orthogonalPerimeter;" vertex="1" parent="uX3Hsv1PVu4bfO5Dq79v-28">
          <mxGeometry x="45" y="371" width="10" height="99" as="geometry" />
        </mxCell>
        <mxCell id="uX3Hsv1PVu4bfO5Dq79v-29" value="消息中心" style="shape=umlLifeline;perimeter=lifelinePerimeter;whiteSpace=wrap;html=1;container=1;collapsible=0;recursiveResize=0;outlineConnect=0;" parent="1" vertex="1">
          <mxGeometry x="640" y="1169" width="100" height="711" as="geometry" />
        </mxCell>
        <mxCell id="uX3Hsv1PVu4bfO5Dq79v-45" value="" style="html=1;points=[];perimeter=orthogonalPerimeter;" parent="uX3Hsv1PVu4bfO5Dq79v-29" vertex="1">
          <mxGeometry x="45" y="571" width="10" height="80" as="geometry" />
        </mxCell>
        <mxCell id="uX3Hsv1PVu4bfO5Dq79v-31" value="获取支付二维码&lt;br&gt;参数：渠道ID、回调队列名" style="html=1;verticalAlign=bottom;startArrow=oval;endArrow=block;startSize=8;rounded=0;" parent="1" source="uX3Hsv1PVu4bfO5Dq79v-26" target="uX3Hsv1PVu4bfO5Dq79v-30" edge="1">
          <mxGeometry relative="1" as="geometry">
            <mxPoint x="420" y="1230" as="sourcePoint" />
            <Array as="points">
              <mxPoint x="290" y="1260" />
            </Array>
          </mxGeometry>
        </mxCell>
        <mxCell id="uX3Hsv1PVu4bfO5Dq79v-33" value="获取二维码" style="html=1;verticalAlign=bottom;startArrow=oval;endArrow=block;startSize=8;rounded=0;" parent="1" target="uX3Hsv1PVu4bfO5Dq79v-32" edge="1">
          <mxGeometry relative="1" as="geometry">
            <mxPoint x="480" y="1310" as="sourcePoint" />
          </mxGeometry>
        </mxCell>
        <mxCell id="uX3Hsv1PVu4bfO5Dq79v-35" value="发送给用户" style="html=1;verticalAlign=bottom;startArrow=oval;endArrow=block;startSize=8;rounded=0;" parent="1" source="uX3Hsv1PVu4bfO5Dq79v-32" target="uX3Hsv1PVu4bfO5Dq79v-34" edge="1">
          <mxGeometry relative="1" as="geometry">
            <mxPoint x="225" y="1350" as="sourcePoint" />
            <Array as="points">
              <mxPoint x="190" y="1350" />
            </Array>
          </mxGeometry>
        </mxCell>
        <mxCell id="uX3Hsv1PVu4bfO5Dq79v-39" value="调用支付接口：&lt;br&gt;参数：渠道、订单号、&lt;br&gt;支付方式、回调队列名" style="html=1;verticalAlign=bottom;startArrow=oval;endArrow=block;startSize=8;rounded=0;" parent="1" source="uX3Hsv1PVu4bfO5Dq79v-36" target="uX3Hsv1PVu4bfO5Dq79v-38" edge="1">
          <mxGeometry relative="1" as="geometry">
            <mxPoint x="425" y="1490" as="sourcePoint" />
          </mxGeometry>
        </mxCell>
        <mxCell id="uX3Hsv1PVu4bfO5Dq79v-41" value="发起支付&lt;br&gt;小程序：直接调起支付&lt;br&gt;支付宝：提示保存二维码" style="html=1;verticalAlign=bottom;startArrow=oval;endArrow=block;startSize=8;rounded=0;" parent="1" source="-LrGTN-4yrzrAGJKd58x-1" target="uX3Hsv1PVu4bfO5Dq79v-40" edge="1">
          <mxGeometry x="-0.1351" relative="1" as="geometry">
            <mxPoint x="180" y="1690" as="sourcePoint" />
            <Array as="points">
              <mxPoint x="360" y="1620" />
            </Array>
            <mxPoint as="offset" />
          </mxGeometry>
        </mxCell>
        <mxCell id="uX3Hsv1PVu4bfO5Dq79v-46" value="支付成功提交给信息中，&lt;br&gt;使用参数中的回调队列，&lt;br&gt;信息为订单编号" style="html=1;verticalAlign=bottom;startArrow=oval;endArrow=block;startSize=8;rounded=0;" parent="1" source="uX3Hsv1PVu4bfO5Dq79v-44" target="uX3Hsv1PVu4bfO5Dq79v-45" edge="1">
          <mxGeometry relative="1" as="geometry">
            <mxPoint x="625" y="1740" as="sourcePoint" />
          </mxGeometry>
        </mxCell>
        <mxCell id="uX3Hsv1PVu4bfO5Dq79v-51" value="提交给OA做处理" style="html=1;verticalAlign=bottom;startArrow=oval;endArrow=block;startSize=8;rounded=0;exitX=0.1;exitY=0.8;exitDx=0;exitDy=0;exitPerimeter=0;" parent="1" source="uX3Hsv1PVu4bfO5Dq79v-45" target="uX3Hsv1PVu4bfO5Dq79v-50" edge="1">
          <mxGeometry relative="1" as="geometry">
            <mxPoint x="686" y="1770" as="sourcePoint" />
          </mxGeometry>
        </mxCell>
        <mxCell id="-LrGTN-4yrzrAGJKd58x-2" value="调用支付中心的接口" style="html=1;verticalAlign=bottom;startArrow=oval;endArrow=block;startSize=8;rounded=0;exitX=1;exitY=0.761;exitDx=0;exitDy=0;exitPerimeter=0;" edge="1" target="-LrGTN-4yrzrAGJKd58x-1" parent="1" source="uX3Hsv1PVu4bfO5Dq79v-38">
          <mxGeometry relative="1" as="geometry">
            <mxPoint x="425" y="1540" as="sourcePoint" />
          </mxGeometry>
        </mxCell>
        <mxCell id="-LrGTN-4yrzrAGJKd58x-4" value="使用支付中心的参数发起支付" style="html=1;verticalAlign=bottom;startArrow=oval;endArrow=block;startSize=8;rounded=0;" edge="1" target="-LrGTN-4yrzrAGJKd58x-3" parent="1" source="uX3Hsv1PVu4bfO5Dq79v-40">
          <mxGeometry relative="1" as="geometry">
            <mxPoint x="225" y="1660" as="sourcePoint" />
          </mxGeometry>
        </mxCell>
      </root>
    </mxGraphModel>
  </diagram>
</mxfile>
